<?xml version="1.0" standalone="no"?>
<!DOCTYPE svg PUBLIC "-//W3C//DTD SVG 20010904//EN"
 "http://www.w3.org/TR/2001/REC-SVG-20010904/DTD/svg10.dtd">
<svg version="1.0" xmlns="http://www.w3.org/2000/svg"
 width="259.000000pt" height="194.000000pt" viewBox="0 0 259.000000 194.000000"
 preserveAspectRatio="xMidYMid meet">
<metadata>
Created by potrace 1.16, written by Peter Selinger 2001-2019
</metadata>
<g transform="translate(0.000000,194.000000) scale(0.100000,-0.100000)"
fill="#000000" stroke="none">
<path d="M0 970 l0 -970 1295 0 1295 0 0 970 0 970 -1295 0 -1295 0 0 -970z
m1775 369 c25 -23 45 -50 45 -59 0 -10 -71 -103 -157 -206 -87 -103 -219 -260
-293 -348 -112 -133 -140 -161 -162 -161 -35 0 -438 367 -438 399 0 27 55 95
88 107 28 11 33 8 224 -109 64 -40 121 -72 126 -72 5 0 27 19 47 43 21 23 98
104 172 180 86 87 132 142 127 150 -4 6 -3 9 1 4 11 -10 56 33 48 46 -3 6 -2
7 4 4 5 -3 25 9 43 28 44 46 70 44 125 -6z"/>
</g>
</svg>
